<svg xmlns="http://www.w3.org/2000/svg" width="100%" viewBox="0 0 24 24" fill="none"><path d="M18.9837 8.3999C20.0262 8.4002 20.8349 9.27779 20.7814 10.2913L20.7591 10.4964L19.3599 18.8964C19.2151 19.7637 18.4638 20.3994 17.5845 20.3999H6.41653C5.53704 20.3996 4.786 19.7639 4.64114 18.8964L3.24192 10.4964C3.05906 9.39923 3.90502 8.3999 5.01731 8.3999H18.9837ZM5.01731 9.5999C4.6466 9.5999 4.36466 9.93268 4.42551 10.2983L5.82473 18.6983C5.87296 18.9874 6.12349 19.1996 6.41653 19.1999H17.5845C17.8773 19.1994 18.1281 18.9873 18.1763 18.6983L19.5755 10.2983L19.5825 10.1636C19.5644 9.85501 19.3079 9.60018 18.9837 9.5999H5.01731Z" fill="currentColor"></path><path d="M19.2005 6.6C19.2005 6.26881 18.9317 6.00029 18.6005 6H5.40054C5.06917 6 4.80054 6.26863 4.80054 6.6C4.80054 6.93137 5.06917 7.2 5.40054 7.2H18.6005C18.9317 7.19971 19.2005 6.93119 19.2005 6.6Z" fill="currentColor"></path><path d="M17.4005 4.2001C17.4005 3.8689 17.1317 3.60038 16.8005 3.6001H7.20052C6.86915 3.6001 6.60052 3.86873 6.60052 4.2001C6.60052 4.53147 6.86915 4.8001 7.20052 4.8001H16.8005C17.1317 4.79981 17.4005 4.53129 17.4005 4.2001Z" fill="currentColor"></path></svg>