<svg xmlns="http://www.w3.org/2000/svg" width="16" height="16" viewBox="0 0 24 24" fill="none" aria-hidden="true"><path d="M7.19993 16.2C7.86266 16.2 8.39992 16.7372 8.39994 17.4V19.8C8.39994 20.4627 7.86268 21 7.19993 21H4.79993C4.1372 21 3.59993 20.4627 3.59993 19.8V17.4C3.59995 16.7372 4.13721 16.2 4.79993 16.2H7.19993ZM4.79993 19.8H7.19993V17.4H4.79993V19.8ZM19.7999 18C20.1313 18 20.3999 18.2686 20.3999 18.6C20.3999 18.9313 20.1313 19.2 19.7999 19.2H11.3999C11.0686 19.2 10.7999 18.9313 10.7999 18.6C10.8 18.2686 11.0686 18 11.3999 18H19.7999ZM7.19993 9.59995C7.86266 9.59995 8.39992 10.1372 8.39994 10.8V13.2C8.39994 13.8627 7.86268 14.4 7.19993 14.4H4.79993C4.1372 14.3999 3.59993 13.8627 3.59993 13.2V10.8C3.59995 10.1372 4.13721 9.59996 4.79993 9.59995H7.19993ZM4.79993 13.2H7.19993V10.8H4.79993V13.2ZM19.7999 11.4C20.1313 11.4 20.3999 11.6686 20.3999 12C20.3999 12.3313 20.1313 12.6 19.7999 12.6H11.3999C11.0686 12.5999 10.7999 12.3313 10.7999 12C10.8 11.6686 11.0686 11.4 11.3999 11.4H19.7999ZM7.35111 3.50151C7.57101 3.25379 7.95053 3.23131 8.19837 3.45112C8.4461 3.67103 8.46859 4.05054 8.24876 4.29838L5.58743 7.29839C5.47433 7.42572 5.31244 7.49903 5.14212 7.49995C4.97172 7.50086 4.80894 7.42928 4.69446 7.30307L3.45579 5.93667L3.38313 5.83823C3.24114 5.59812 3.28207 5.2829 3.49681 5.08823C3.71146 4.8938 4.02885 4.88384 4.25384 5.04838L4.34407 5.13041L5.13275 5.99995L7.35111 3.50151ZM19.7999 4.79995C20.1313 4.79995 20.3999 5.06859 20.3999 5.39995C20.3999 5.73132 20.1313 5.99995 19.7999 5.99995H11.3999C11.0686 5.99994 10.7999 5.73131 10.7999 5.39995C10.8 5.0686 11.0686 4.79996 11.3999 4.79995H19.7999Z" fill="currentColor"></path></svg>