<svg xmlns="http://www.w3.org/2000/svg" width="100%" viewBox="0 0 17 17" fill="none"><path d="M14.3818 0.5625C15.3456 0.562625 16.1268 1.34386 16.127 2.30762V14.5264C16.1268 15.4902 15.3456 16.2714 14.3818 16.2715H2.16309C1.19933 16.2713 0.418093 15.4901 0.417969 14.5264V2.30762C0.418151 1.3439 1.19937 0.562682 2.16309 0.5625H14.3818ZM2.8252 14.0898H5.16797V6.52539H2.8252V14.0898ZM11.1924 6.29492C9.58733 6.29492 8.91211 7.54492 8.91211 7.54492V6.52539H6.66504V14.0898H8.91211V10.1191C8.91211 9.05529 9.40154 8.42188 10.3389 8.42188C11.2005 8.42189 11.6143 9.03057 11.6143 10.1191V14.0898H13.9453V9.30078C13.9453 7.2746 12.7967 6.29494 11.1924 6.29492ZM3.98535 2.74414C3.22012 2.74414 2.59961 3.36889 2.59961 4.13965C2.59963 4.91039 3.22014 5.53516 3.98535 5.53516C4.75044 5.53501 5.3701 4.9103 5.37012 4.13965C5.37012 3.36898 4.75046 2.74429 3.98535 2.74414Z" fill="currentColor"></path></svg>