<svg width="20" height="20" viewBox="0 0 20 20" fill="currentColor" xmlns="http://www.w3.org/2000/svg" aria-hidden="true" style="flex-shrink: 0;"><path d="M6.068 2.161a2.72 2.72 0 0 1 3.524 1.533l3.206 8.14a1.61 1.61 0 0 1-.907 2.087l-.076.03a1.61 1.61 0 0 1-2.087-.908L8.027 8.726a.5.5 0 0 1 .93-.367l1.702 4.318a.61.61 0 0 0 .79.343l.076-.03a.61.61 0 0 0 .343-.79L8.662 4.06a1.72 1.72 0 0 0-2.227-.968l-.154.06a1.72 1.72 0 0 0-.97 2.228l3.87 9.821a2.826 2.826 0 0 0 3.665 1.594l.23-.09a2.83 2.83 0 0 0 1.595-3.666l-2.363-6a.5.5 0 1 1 .93-.366l2.363 6a3.826 3.826 0 0 1-2.158 4.962l-.23.09a3.827 3.827 0 0 1-4.963-2.157L4.382 5.747a2.72 2.72 0 0 1 1.532-3.525z"></path></svg>